<?xml version="1.0" standalone="no"?>
<!DOCTYPE svg PUBLIC "-//W3C//DTD SVG 20010904//EN"
 "http://www.w3.org/TR/2001/REC-SVG-20010904/DTD/svg10.dtd">
<svg version="1.0" xmlns="http://www.w3.org/2000/svg"
 width="600.000000pt" height="600.000000pt" viewBox="0 0 600.000000 600.000000"
 preserveAspectRatio="xMidYMid meet">
<metadata>
Created by potrace 1.11, written by Peter Selinger 2001-2013
</metadata>
<g transform="translate(0.000000,600.000000) scale(0.100000,-0.100000)"
fill="#000000" stroke="none">
<path d="M0 3000 l0 -3000 3000 0 3000 0 0 3000 0 3000 -3000 0 -3000 0 0
-3000z m2235 2790 c77 -19 140 -52 168 -87 10 -12 28 -25 40 -29 42 -12 142
-77 191 -123 55 -53 90 -103 100 -146 4 -16 13 -37 20 -45 7 -8 21 -37 31 -65
10 -27 29 -70 43 -95 24 -44 26 -80 8 -160 -3 -14 -13 -58 -22 -98 -13 -61
-20 -77 -43 -90 -22 -12 -30 -27 -39 -70 -6 -30 -19 -63 -29 -74 -18 -20 -19
-55 -5 -133 8 -50 9 -50 20 -22 7 16 12 34 12 40 0 35 26 93 70 160 64 98 92
109 145 58 34 -31 76 -56 88 -53 4 1 12 -9 17 -22 5 -13 15 -28 22 -33 40 -25
59 -131 33 -186 -11 -25 -21 -34 -32 -30 -12 5 -14 1 -8 -18 4 -16 3 -20 -3
-10 -11 15 -24 1 -19 -21 2 -7 2 -10 0 -6 -3 5 -23 -7 -46 -26 -60 -48 -87
-60 -100 -47 -17 17 -25 13 -51 -27 -13 -20 -42 -50 -64 -65 -36 -26 -43 -38
-78 -140 -26 -79 -39 -137 -43 -196 -4 -54 -10 -86 -18 -89 -8 -2 -13 6 -13
20 0 13 -7 31 -14 41 -41 54 -27 -28 25 -137 47 -102 66 -211 49 -292 -12 -54
-8 -201 9 -409 7 -85 6 -115 -3 -84 -2 8 -10 37 -19 64 l-15 50 -1 -45 c-2
-74 -21 -23 -26 67 -1 43 -9 125 -16 183 -8 58 -12 136 -11 173 1 37 -3 77 -8
88 -6 11 -12 39 -12 62 0 23 -3 36 -6 28 -3 -8 -10 0 -17 20 -34 91 -79 187
-99 209 -13 14 -39 59 -60 100 -43 87 -75 134 -76 109 0 -9 6 -22 14 -28 7 -6
16 -33 20 -60 4 -27 12 -51 18 -53 14 -5 16 -74 4 -100 -5 -12 -4 -18 3 -18 6
0 11 9 11 20 0 17 2 19 14 8 18 -17 11 -33 -20 -46 -21 -10 -24 -18 -24 -62 0
-27 5 -50 10 -50 6 0 10 24 10 53 l1 52 15 -34 c10 -25 11 -36 3 -42 -6 -4 -8
-16 -4 -28 5 -17 3 -20 -11 -14 -14 5 -16 2 -10 -23 11 -43 22 -130 19 -141
-2 -5 -16 -8 -32 -5 -24 3 -30 10 -34 35 -10 63 -17 81 -42 104 -27 26 -31 38
-15 48 6 3 10 22 10 42 0 28 -3 33 -13 24 -8 -6 -16 -9 -18 -6 -3 2 -3 -11 -1
-30 3 -22 0 -35 -7 -35 -7 0 -11 -14 -9 -33 2 -29 5 -33 25 -29 13 2 23 -1 23
-7 0 -6 -11 -11 -25 -11 -24 0 -30 -11 -28 -59 1 -7 -5 -27 -13 -45 -7 -17
-14 -24 -14 -16 -1 19 -23 -16 -27 -43 -5 -29 -30 -48 -61 -45 -23 2 -36 -6
-57 -30 -56 -67 -112 -23 -76 60 14 34 17 61 14 129 -3 56 -1 89 6 94 19 11
12 30 -26 74 l-37 44 17 47 c18 50 22 106 9 114 -4 2 -16 -7 -26 -22 -21 -32
-102 -86 -115 -78 -10 7 -5 75 10 120 10 31 2 96 -11 96 -4 0 -15 -15 -23 -33
-14 -29 -68 -87 -82 -87 -3 0 4 14 17 30 19 27 20 32 7 45 -13 13 -18 9 -44
-40 -23 -41 -36 -55 -52 -55 -21 0 -50 35 -45 54 2 4 -2 14 -7 20 -6 7 -17 59
-26 115 -8 57 -18 108 -21 113 -3 5 -6 57 -5 116 1 114 -5 165 -19 157 -16
-10 -18 9 -21 145 -1 74 -7 141 -12 148 -11 14 3 148 18 173 9 14 -28 114 -50
135 -19 18 -21 27 -15 60 7 34 15 31 11 -3 -1 -7 3 -13 8 -13 20 0 22 21 6 53
-10 17 -23 64 -31 102 -15 69 -42 135 -56 135 -4 0 -15 -13 -25 -30 -9 -16
-21 -30 -25 -30 -10 0 -5 66 12 170 17 103 25 123 49 115 16 -5 20 0 23 27 3
28 7 33 28 32 14 -1 29 5 35 13 6 8 34 15 65 17 30 2 70 7 88 11 21 5 32 4 32
-4 0 -7 8 -8 28 0 67 27 174 51 252 56 47 3 87 7 89 9 8 7 128 -9 196 -26z
m-878 -512 c-3 -7 -5 -2 -5 12 0 14 2 19 5 13 2 -7 2 -19 0 -25z m-12 -45 c8
-20 13 -44 10 -54 -3 -9 -1 -20 5 -24 19 -12 10 -33 -16 -39 -20 -5 -33 -1
-50 15 -23 22 -34 56 -14 44 6 -3 10 1 10 10 0 11 5 15 16 11 12 -5 14 -1 9
17 -4 12 -7 24 -7 27 -1 42 18 39 37 -7z m-390 -155 c5 -18 3 -28 -4 -28 -6 0
-10 -15 -10 -32 1 -24 3 -27 6 -10 7 36 23 15 23 -31 0 -53 -10 -88 -21 -81
-5 3 -9 -7 -9 -23 0 -29 -15 -61 -24 -52 -3 2 -1 22 4 43 5 21 7 44 5 50 -10
29 -14 156 -5 156 6 0 10 12 10 27 0 32 15 21 25 -19z m2002 -235 c-3 -10 -5
-4 -5 12 0 17 2 24 5 18 2 -7 2 -21 0 -30z m-2010 -120 c-2 -21 -4 -6 -4 32 0
39 2 55 4 38 2 -18 2 -50 0 -70z m344 67 c10 -6 19 -19 19 -29 0 -20 -53 -71
-74 -71 -8 0 -19 -7 -24 -16 -7 -13 -13 -14 -29 -6 -14 8 -23 8 -31 0 -8 -8
-13 -7 -18 6 -7 18 37 88 70 112 24 17 60 18 87 4z m-309 -276 c6 -19 16 -34
20 -34 4 0 8 -6 8 -12 -1 -21 -70 64 -70 85 0 29 26 4 42 -39z m94 -165 c15
-30 29 -47 36 -43 7 5 9 -1 4 -19 -4 -19 -3 -25 6 -22 8 3 24 -16 40 -47 27
-51 32 -88 29 -202 -1 -29 -2 -29 -16 -10 -15 18 -15 18 -13 -6 2 -14 8 -24
14 -23 16 3 42 -108 48 -205 4 -57 12 -95 26 -120 11 -20 29 -76 40 -125 32
-140 35 -144 150 -217 56 -36 126 -84 155 -106 53 -43 203 -144 212 -144 3 0
17 -8 31 -19 15 -10 38 -22 51 -26 23 -7 23 -7 7 16 -23 33 -20 39 17 39 21 0
50 -12 82 -35 108 -75 188 -142 208 -175 l21 -35 -24 20 c-35 29 29 -52 117
-150 40 -44 80 -96 89 -115 9 -19 27 -57 40 -84 13 -28 24 -62 24 -76 0 -14
13 -46 28 -71 35 -55 72 -126 108 -204 15 -33 35 -72 45 -86 11 -15 16 -35 12
-47 -3 -13 -1 -22 6 -22 8 0 10 -20 7 -65 -5 -76 13 -132 33 -98 8 14 10 2 8
-52 -2 -72 23 -235 48 -315 23 -72 29 -153 14 -181 -7 -13 -13 -28 -14 -34 0
-17 -19 -40 -48 -58 -31 -20 -51 -14 -42 13 8 27 10 248 2 256 -4 4 -7 14 -7
21 0 8 -7 22 -16 31 -13 12 -15 29 -11 75 4 46 2 60 -10 64 -10 4 -13 13 -8
30 3 14 -1 33 -10 46 -15 21 -15 21 -15 -10 0 -22 -4 -31 -13 -27 -11 4 -50
-41 -100 -116 -10 -13 -17 -19 -17 -12 0 8 13 32 29 55 37 54 81 152 81 179 0
12 6 29 14 37 15 17 32 81 21 81 -13 0 -51 -23 -80 -49 -30 -27 -125 -88 -196
-125 -20 -11 -66 -47 -102 -80 -87 -80 -165 -140 -319 -240 -69 -46 -146 -102
-171 -125 -48 -45 -177 -134 -184 -127 -10 10 20 47 79 97 66 57 99 91 92 98
-2 2 -15 -4 -29 -13 -73 -47 -73 -42 3 29 82 76 126 112 254 206 92 67 267
183 313 207 22 12 72 43 110 70 54 37 71 55 73 75 2 17 21 45 50 72 41 39 45
47 35 67 -6 13 -30 84 -54 158 -48 153 -112 264 -201 347 -28 27 -112 109
-187 183 -219 216 -282 265 -432 337 -91 44 -196 108 -244 151 -17 15 -41 36
-54 47 l-24 20 7 -25 c6 -19 -2 -14 -36 24 -66 77 -99 142 -123 246 -35 158
-45 218 -49 320 -8 175 -18 262 -36 325 -26 87 -59 155 -73 150 -7 -2 -25 17
-42 42 -42 66 -42 67 9 32 31 -20 55 -48 72 -80z m1944 -4 c0 -41 -2 -45 -25
-45 -29 0 -31 6 -10 26 8 9 15 26 15 40 0 13 5 24 10 24 6 0 10 -20 10 -45z
m-124 -407 c10 -16 15 -45 15 -85 0 -18 5 -33 11 -33 6 0 8 -12 5 -30 -4 -19
3 -62 20 -117 14 -49 28 -101 31 -116 3 -17 15 -33 32 -42 15 -8 42 -38 61
-66 18 -29 35 -47 37 -40 7 22 28 11 47 -26 11 -20 35 -55 52 -77 18 -23 33
-46 33 -52 0 -17 72 -148 156 -284 41 -67 67 -96 118 -134 35 -26 72 -59 81
-72 9 -14 24 -35 33 -47 26 -34 153 -157 179 -174 13 -9 22 -22 19 -29 -4 -10
3 -14 19 -14 22 0 25 -4 25 -35 0 -33 2 -35 40 -41 29 -5 46 -15 61 -35 16
-22 28 -29 52 -27 31 1 129 -29 192 -59 27 -12 35 -12 68 2 40 16 49 35 18 35
-11 0 -23 5 -26 11 -4 6 -13 8 -21 5 -25 -9 -28 24 -5 48 28 30 27 34 -10 32
-23 -1 -34 -8 -40 -24 -5 -13 -14 -20 -19 -17 -10 6 0 28 21 45 3 3 14 20 23
38 17 32 17 34 -1 28 -10 -3 -24 -2 -32 3 -19 12 6 76 36 90 13 6 23 15 23 20
0 6 12 10 28 11 15 0 72 4 127 8 97 7 107 15 35 26 -19 3 -57 9 -83 14 -26 5
-50 5 -53 0 -10 -16 -24 -8 -44 25 -24 39 -25 47 -5 47 8 0 15 -6 15 -14 0
-13 24 -23 75 -33 19 -3 19 -3 0 16 -11 10 -22 19 -25 19 -29 0 -40 5 -45 23
-5 15 -2 25 9 31 25 14 2 51 -28 46 -20 -4 -22 -1 -21 39 1 24 5 46 8 50 14
13 7 34 -10 31 -14 -2 -17 3 -15 21 2 19 0 21 -11 12 -8 -6 -16 -8 -20 -5 -11
11 -38 -44 -32 -67 4 -18 0 -27 -15 -37 -25 -15 -50 -4 -70 32 -14 26 -30 35
-30 16 0 -12 28 -58 47 -78 6 -6 14 -21 18 -31 3 -10 19 -24 35 -31 25 -10 29
-16 24 -37 -4 -15 -2 -28 5 -33 7 -4 15 -26 18 -48 4 -33 2 -43 -11 -48 -9 -3
-16 -12 -16 -18 0 -26 -102 -57 -115 -36 -3 5 -26 12 -50 16 -27 4 -45 11 -45
20 0 8 -10 12 -27 11 -27 -2 -28 0 -27 45 0 44 -1 47 -26 46 -29 -1 -70 18
-70 32 0 6 6 10 14 10 20 0 28 27 10 34 -12 4 -13 10 -4 26 6 11 8 25 5 30 -8
13 35 50 59 50 18 0 18 2 6 14 -12 11 -26 12 -65 5 -77 -15 -162 -22 -187 -16
-14 4 -28 19 -35 37 -6 16 -18 30 -27 30 -10 0 -16 9 -16 21 0 18 4 21 30 16
23 -5 28 -3 23 9 -3 8 -12 13 -19 10 -16 -6 -47 22 -38 35 3 5 -3 24 -14 42
-11 17 -18 40 -17 50 4 22 -22 22 -47 0 -17 -15 -18 -15 -18 10 0 22 7 28 54
41 30 9 76 15 102 14 64 -4 68 16 14 71 -28 28 -49 41 -68 41 l-27 -1 33 -27
c31 -26 32 -27 13 -39 -11 -7 -38 -17 -59 -22 -37 -8 -39 -7 -34 13 3 11 9 27
15 34 14 17 -17 16 -32 -2 -9 -11 -18 -12 -41 -3 -33 13 -48 37 -23 37 13 0
12 5 -7 25 -13 14 -28 25 -34 25 -6 0 -22 9 -36 20 -28 22 -76 26 -83 8 -3
-10 -8 -10 -16 -2 -12 11 -22 104 -11 104 3 0 21 -16 40 -35 19 -19 38 -35 43
-35 5 0 23 -6 40 -14 53 -23 70 -28 117 -32 71 -5 110 -14 110 -24 0 -6 7 -10
15 -10 9 0 46 -29 83 -65 52 -50 74 -65 98 -65 30 0 92 -49 78 -62 -3 -3 9 -9
26 -13 17 -4 34 -4 37 -1 4 3 11 2 17 -3 6 -5 37 -17 69 -26 31 -9 57 -21 57
-26 0 -5 16 -9 35 -9 34 0 35 -1 35 -40 0 -30 4 -40 16 -40 18 0 44 24 44 41
0 16 150 3 188 -17 l27 -14 -32 0 c-18 0 -33 -4 -33 -10 0 -11 5 -12 70 -12
46 -1 79 -25 80 -60 0 -10 9 -33 19 -52 11 -19 17 -37 14 -40 -12 -12 18 -34
40 -29 14 3 18 2 10 -4 -9 -6 1 -21 32 -51 36 -34 45 -50 45 -77 0 -34 30 -75
55 -75 19 0 112 -89 167 -158 29 -37 75 -92 103 -123 29 -31 65 -81 82 -110
26 -46 28 -55 16 -65 -13 -9 -11 -18 16 -65 19 -35 31 -70 32 -95 0 -21 4 -48
8 -58 4 -11 1 -41 -7 -69 -13 -46 -13 -50 7 -68 12 -11 19 -24 16 -30 -4 -5 0
-9 8 -9 18 0 33 -74 44 -217 4 -52 2 -65 -15 -83 -17 -18 -24 -20 -42 -10 -12
6 -23 10 -25 8 -2 -2 -13 -28 -24 -58 -19 -49 -19 -56 -6 -77 17 -25 20 -47 6
-39 -5 3 -12 -1 -15 -10 -3 -8 -11 -12 -17 -9 -12 8 -55 -33 -45 -42 3 -4 -1
-14 -10 -24 -19 -21 -12 -36 24 -51 16 -6 22 -12 14 -15 -7 -3 -12 -22 -12
-45 0 -38 2 -40 25 -34 21 5 25 2 31 -30 9 -51 -6 -109 -29 -108 -17 2 -22
-16 -17 -59 1 -10 -13 -34 -30 -55 -48 -57 -50 -61 -50 -70 0 -13 -101 -102
-114 -102 -6 0 -22 -13 -36 -30 -14 -16 -30 -30 -36 -30 -6 0 -20 -8 -32 -18
-11 -10 -37 -27 -56 -37 -20 -11 -36 -23 -36 -27 0 -5 -7 -8 -15 -8 -15 0 -40
-11 -123 -55 -18 -9 -59 -24 -90 -32 -31 -8 -84 -21 -117 -29 -33 -9 -76 -17
-95 -19 -19 -3 -46 -6 -60 -8 -14 -3 -47 -8 -75 -12 -27 -4 -59 -10 -70 -12
-11 -2 -36 -6 -55 -8 -19 -2 -51 -7 -70 -10 -19 -4 -42 -7 -50 -7 -8 0 -20 -5
-26 -10 -7 -5 -23 -4 -39 2 -28 11 -95 4 -95 -10 0 -12 -37 -19 -48 -8 -5 5
-29 11 -53 13 -24 2 -44 4 -44 5 0 0 -42 3 -94 5 -56 2 -97 8 -101 15 -4 6
-22 11 -41 11 -19 0 -51 3 -71 5 -31 5 -38 10 -38 29 0 17 -7 24 -30 28 -18 4
-30 13 -30 22 0 8 -4 15 -10 15 -5 0 -10 -4 -10 -10 0 -14 -33 -13 -48 2 -8 8
-8 17 -1 30 5 10 7 22 4 27 -3 5 1 11 7 14 7 2 10 8 6 12 -5 5 -18 0 -29 -11
-22 -19 -22 -19 -15 8 3 15 2 30 -4 33 -10 6 -8 40 3 51 14 14 7 34 -12 34
-32 0 -44 67 -16 90 20 17 19 22 -9 42 -23 17 -25 16 -60 -7 -35 -24 -38 -24
-61 -9 -14 9 -25 19 -25 23 0 16 81 129 114 159 38 35 49 60 19 46 -36 -18
-142 -6 -194 20 -27 15 -49 22 -49 16 0 -11 -62 -5 -122 11 -40 10 -52 29 -18
29 10 0 24 9 30 20 9 17 7 20 -15 26 -14 3 -25 10 -25 15 0 12 47 11 55 -1 3
-5 13 -10 21 -10 13 0 13 2 -1 16 -9 9 -14 19 -11 21 7 8 46 -7 46 -18 0 -5
10 -9 23 -9 13 0 28 -5 35 -12 9 -9 14 -4 23 20 12 34 29 34 29 1 0 -11 12
-31 26 -44 21 -20 30 -22 46 -14 14 7 23 7 34 -2 10 -8 18 -8 27 -1 7 6 27 9
44 6 25 -4 35 1 58 28 25 30 85 74 85 63 0 -2 29 18 65 45 35 27 80 56 99 65
20 10 57 37 83 61 26 24 55 44 64 44 10 0 19 6 22 13 2 7 8 8 13 3 5 -5 4 -11
-3 -13 -7 -3 -13 -11 -13 -19 0 -8 -4 -14 -10 -14 -5 0 -10 -5 -10 -11 0 -8
15 -10 48 -5 72 10 83 13 135 31 27 9 73 20 103 25 37 6 68 19 93 40 22 16 48
30 59 30 26 0 145 50 208 87 28 17 84 46 125 66 41 19 82 44 92 55 16 17 16
21 2 32 -12 10 -15 10 -15 -4 0 -9 -4 -16 -10 -16 -9 0 -11 12 -13 63 0 6 5
25 12 41 6 16 9 31 6 34 -3 3 2 14 12 24 9 10 13 21 10 24 -8 8 -37 -21 -37
-38 0 -10 -3 -9 -10 2 -8 13 -11 11 -16 -7 -8 -30 -44 -31 -44 -3 0 28 -20 48
-42 42 -10 -2 -18 -8 -18 -12 0 -4 -14 -13 -30 -20 -24 -10 -28 -15 -19 -27
18 -21 -23 -56 -56 -47 -27 7 -54 -16 -55 -44 0 -8 -9 -27 -21 -43 -22 -31
-54 -38 -90 -19 -15 8 -19 7 -19 -5 0 -8 5 -15 10 -15 6 0 10 -7 10 -15 0 -8
-4 -15 -9 -15 -5 0 -8 -10 -8 -23 0 -13 -16 -40 -35 -61 -32 -34 -37 -37 -56
-25 -17 11 -28 11 -55 1 -47 -17 -97 -16 -97 2 0 9 -9 14 -20 13 -14 -1 -19
-6 -14 -17 4 -8 9 -26 12 -40 5 -22 3 -23 -10 -12 -13 10 -17 10 -21 0 -4 -9
-8 -10 -14 -2 -7 9 -70 44 -80 44 -2 0 -1 -16 3 -35 6 -32 4 -35 -17 -35 -12
0 -31 -7 -40 -16 -25 -22 -66 -5 -117 48 l-39 40 -21 -51 c-12 -27 -22 -53
-22 -58 0 -4 -10 -19 -21 -33 l-21 -25 7 25 c15 58 17 70 8 70 -14 0 -37 -32
-59 -84 -12 -26 -24 -44 -27 -40 -3 5 2 45 10 89 9 44 15 106 14 138 -1 45 2
57 14 57 23 0 18 31 -6 37 -18 5 -20 11 -16 39 3 19 1 36 -4 39 -5 4 -7 16 -4
28 2 12 7 60 10 107 3 47 9 104 12 128 4 30 -1 61 -15 100 -58 161 -85 282
-88 387 -1 44 -8 105 -17 135 -8 30 -18 78 -21 105 -9 85 -16 167 -21 246 -4
60 -12 90 -36 138 -34 66 -45 124 -55 298 -4 66 -2 118 5 145 8 29 9 72 3 130
-4 48 -4 97 0 109 5 13 6 30 2 38 -8 18 -6 161 2 204 6 29 18 35 30 15z m128
-9 c-3 -5 -10 -7 -15 -3 -5 3 -7 10 -3 15 3 5 10 7 15 3 5 -3 7 -10 3 -15z
m26 -134 c7 -9 8 -15 2 -15 -5 0 -12 7 -16 15 -3 8 -4 15 -2 15 2 0 9 -7 16
-15z m-1332 -27 c3 -14 -3 -18 -27 -18 -29 0 -41 17 -24 34 13 13 48 1 51 -16z
m80 0 c4 -19 -20 -29 -38 -18 -11 7 -12 11 0 25 15 18 34 15 38 -7z m-37 -172
c6 3 26 -10 44 -31 26 -27 39 -35 54 -30 15 4 29 -2 51 -25 34 -35 37 -46 13
-72 -23 -26 -34 -23 -74 18 -44 47 -102 74 -162 74 -52 0 -56 14 -6 25 20 5
29 12 28 23 -3 30 1 33 21 22 11 -6 25 -8 31 -4z m1389 -72 c7 -19 9 -38 6
-41 -6 -6 -36 58 -36 77 0 22 19 -1 30 -36z m35 -109 l6 -30 -15 25 c-17 28
-22 60 -7 45 5 -6 12 -23 16 -40z m-991 -23 c3 -5 10 -46 15 -92 6 -45 15 -88
21 -95 9 -11 27 -82 46 -180 l6 -30 -19 26 c-10 15 -27 39 -38 55 -10 16 -29
41 -41 56 -12 15 -25 42 -29 60 -4 18 -11 38 -16 44 -5 6 -7 22 -5 35 3 13 5
38 5 54 1 43 40 90 55 67z m1130 -208 c4 -10 1 -14 -6 -12 -15 5 -23 28 -10
28 5 0 13 -7 16 -16z m853 -276 c-3 -8 -6 -5 -6 6 -1 11 2 17 5 13 3 -3 4 -12
1 -19z m-307 -307 c0 -5 9 -13 20 -16 11 -3 20 -10 20 -15 0 -5 -13 -1 -30 8
-30 17 -39 32 -20 32 6 0 10 -4 10 -9z m275 -141 c-9 -18 -19 -30 -21 -27 -3
3 2 19 11 37 9 18 19 30 21 27 3 -3 -2 -19 -11 -37z m-217 18 c-5 -16 -48 -24
-48 -9 0 8 17 16 43 20 5 0 7 -5 5 -11z m-1231 -575 c-3 -10 -5 -2 -5 17 0 19
2 27 5 18 2 -10 2 -26 0 -35z m-79 -380 c-22 -46 -33 -63 -39 -63 -5 0 1 16
12 35 12 19 23 35 26 35 2 0 3 -3 1 -7z m997 -133 c3 -5 -1 -10 -9 -10 -9 0
-16 5 -16 10 0 6 4 10 9 10 6 0 13 -4 16 -10z m-2108 -287 c-17 -18 -22 -8
-11 22 5 12 10 13 17 6 8 -8 6 -16 -6 -28z m1488 -63 c3 -5 1 -10 -4 -10 -6 0
-11 5 -11 10 0 6 2 10 4 10 3 0 8 -4 11 -10z m-540 -171 c-6 -18 -4 -20 17
-14 12 3 18 3 11 -2 -12 -9 -16 -25 -14 -66 1 -25 4 -27 24 -21 34 10 50 25
37 38 -14 14 -13 26 4 26 8 0 17 7 20 16 6 15 8 15 24 2 9 -9 23 -13 31 -11 9
4 11 0 7 -13 -3 -11 1 -28 9 -38 16 -21 16 -21 101 11 12 5 26 -35 18 -49 -3
-5 -12 -1 -18 8 -10 12 -15 14 -20 5 -4 -6 -3 -17 3 -24 12 -15 -2 -42 -18
-33 -6 4 -11 16 -11 28 0 17 -2 18 -15 8 -17 -14 -20 -46 -5 -55 15 -9 12 -25
-5 -25 -8 0 -15 -5 -15 -10 0 -23 -50 -60 -80 -60 -27 0 -30 2 -24 25 5 21 3
25 -15 25 -12 0 -21 -6 -21 -15 0 -8 -5 -15 -11 -15 -7 0 -9 9 -5 24 7 27 -7
36 -45 29 -23 -4 -24 -3 -24 62 0 45 4 68 14 74 20 13 3 32 -25 27 -31 -6 -30
3 4 36 33 33 56 37 47 7z m45 -73 c0 -3 -4 -8 -10 -11 -5 -3 -10 -1 -10 4 0 6
5 11 10 11 6 0 10 -2 10 -4z m-110 -16 c-19 -13 -30 -13 -30 0 0 6 10 10 23
10 18 0 19 -2 7 -10z m330 -100 c0 -5 -2 -10 -4 -10 -3 0 -8 5 -11 10 -3 6 -1
10 4 10 6 0 11 -4 11 -10z m0 -28 c0 -10 -41 -35 -47 -28 -7 7 20 35 35 36 6
0 12 -3 12 -8z m-200 -62 c0 -5 -2 -10 -4 -10 -3 0 -8 5 -11 10 -3 6 -1 10 4
10 6 0 11 -4 11 -10z"/>
<path d="M1855 5181 c-21 -4 -46 -31 -39 -42 2 -4 -4 -5 -15 -2 -10 3 -22 0
-25 -6 -4 -5 -13 -8 -20 -5 -20 8 -41 -44 -62 -146 -19 -99 -14 -223 12 -251
8 -9 19 -43 24 -75 12 -78 20 -102 50 -146 30 -45 59 -57 52 -22 -5 26 12 33
22 9 3 -8 10 -15 16 -15 13 0 13 27 -1 32 -6 2 -11 24 -12 48 -1 30 -8 50 -20
60 -11 9 -23 34 -27 55 -5 22 -15 66 -23 97 -12 50 -12 59 0 70 9 7 14 27 12
52 -3 62 10 104 43 131 16 14 34 25 39 25 5 0 9 11 9 25 0 16 4 23 14 19 16
-6 46 21 46 42 0 8 -9 14 -20 14 -25 0 -25 9 -2 26 15 11 13 12 -18 11 -19 -1
-44 -4 -55 -6z"/>
<path d="M1887 4929 c-26 -29 -52 -78 -44 -85 2 -2 18 17 36 42 32 46 33 46
77 40 47 -6 63 9 17 16 -16 3 -35 8 -43 11 -9 4 -25 -5 -43 -24z"/>
<path d="M2050 4870 c0 -5 5 -10 11 -10 5 0 7 5 4 10 -3 6 -8 10 -11 10 -2 0
-4 -4 -4 -10z"/>
<path d="M2089 4819 c7 -19 6 -30 -4 -40 -12 -12 -11 -14 8 -14 12 -1 36 -4
52 -8 l30 -8 -23 19 c-13 10 -34 31 -47 47 -25 30 -25 30 -16 4z"/>
<path d="M1910 4791 c19 -11 39 -20 45 -21 16 0 -28 27 -55 34 -19 5 -16 2 10
-13z"/>
<path d="M1850 4783 c0 -15 31 -46 38 -38 3 3 -4 15 -16 28 -12 12 -22 16 -22
10z"/>
<path d="M2028 4753 c6 -2 18 -2 25 0 6 3 1 5 -13 5 -14 0 -19 -2 -12 -5z"/>
<path d="M2953 4749 c-7 -7 -13 -10 -13 -5 0 7 -54 -27 -77 -50 -7 -7 -13 -20
-13 -28 0 -9 -5 -16 -10 -16 -6 0 -10 -23 -10 -52 2 -128 -2 -144 -49 -192
-25 -25 -43 -47 -40 -49 2 -1 12 -8 21 -16 14 -11 25 -7 73 29 65 48 85 86 85
162 0 65 8 78 38 67 16 -6 22 -16 22 -39 0 -33 15 -38 45 -16 17 12 18 18 8
52 -6 22 -16 58 -22 81 -15 55 -42 88 -58 72z"/>
<path d="M1642 4720 c0 -14 2 -19 5 -12 2 6 2 18 0 25 -3 6 -5 1 -5 -13z"/>
<path d="M1660 4360 c0 -23 51 -110 64 -110 5 0 18 -7 28 -17 30 -27 21 3 -23
78 -40 68 -69 88 -69 49z"/>
<path d="M1132 4220 c0 -14 2 -19 5 -12 2 6 2 18 0 25 -3 6 -5 1 -5 -13z"/>
<path d="M1141 4168 c1 -13 5 -36 9 -53 7 -26 8 -22 9 23 0 29 -3 52 -9 52 -5
0 -9 -10 -9 -22z"/>
<path d="M3000 3476 c0 -8 4 -17 9 -20 5 -4 7 3 4 14 -6 23 -13 26 -13 6z"/>
<path d="M4250 3010 c0 -5 9 -10 19 -10 11 0 23 5 26 10 4 6 -5 10 -19 10 -14
0 -26 -4 -26 -10z"/>
<path d="M3090 2829 c0 -11 4 -18 10 -14 5 3 7 12 3 20 -7 21 -13 19 -13 -6z"/>
<path d="M3098 2755 c2 -14 9 -25 14 -25 5 0 7 -4 4 -9 -9 -15 23 -123 59
-198 19 -39 35 -76 35 -81 0 -5 7 -15 15 -22 8 -7 15 -23 15 -36 0 -14 4 -32
10 -42 5 -9 21 -56 35 -104 14 -47 32 -92 40 -98 11 -9 15 -9 15 -1 0 6 -4 11
-10 11 -5 0 -10 11 -10 25 0 14 -4 25 -8 25 -4 0 -9 12 -10 26 -2 31 18 28 34
-4 6 -12 23 -33 39 -48 l28 -26 -6 36 c-3 20 -15 49 -25 64 -32 45 -62 102
-62 118 0 8 -11 49 -24 92 -13 42 -30 103 -37 135 -9 44 -16 57 -31 57 -22 0
-24 -28 -3 -36 18 -7 19 -28 2 -42 -10 -9 -18 1 -36 41 -12 29 -29 66 -36 82
-7 17 -16 42 -19 58 -8 35 -35 37 -28 2z"/>
<path d="M4322 2283 c16 -15 19 -15 50 0 l33 17 -50 0 c-46 0 -48 -1 -33 -17z"/>
<path d="M4460 1805 c-13 -14 -19 -25 -13 -25 12 0 48 38 41 45 -2 3 -15 -6
-28 -20z"/>
<path d="M4332 1714 c-7 -8 -8 -14 -3 -14 10 0 25 19 20 25 -2 1 -10 -3 -17
-11z"/>
<path d="M4328 1669 c-19 -11 -24 -29 -8 -29 5 0 14 9 20 20 12 23 12 23 -12
9z"/>
<path d="M3790 1621 c0 -12 5 -21 10 -21 6 0 10 6 10 14 0 8 -4 18 -10 21 -5
3 -10 -3 -10 -14z"/>
<path d="M3765 1610 c3 -5 8 -10 11 -10 2 0 4 5 4 10 0 6 -5 10 -11 10 -5 0
-7 -4 -4 -10z"/>
<path d="M3394 1508 c7 -13 17 -36 20 -52 5 -20 10 -26 18 -18 6 6 17 8 26 5
18 -7 13 4 -25 55 -29 38 -63 47 -39 10z"/>
<path d="M2956 763 c-12 -12 -5 -23 14 -23 11 0 20 4 20 9 0 11 -26 22 -34 14z"/>
<path d="M2870 720 c0 -5 5 -10 10 -10 6 0 10 5 10 10 0 6 -4 10 -10 10 -5 0
-10 -4 -10 -10z"/>
<path d="M2576 786 c5 -20 2 -26 -10 -26 -18 0 -22 -15 -6 -25 16 -10 42 22
38 47 -2 12 -9 23 -16 26 -9 3 -11 -3 -6 -22z"/>
<path d="M2528 684 c-4 -3 -4 -12 -2 -19 6 -16 46 -7 41 9 -4 13 -30 20 -39
10z"/>
</g>
</svg>
